<?xml version="1.0" encoding="UTF-8" standalone="no"?>
<svg
   xmlns:dc="http://purl.org/dc/elements/1.1/"
   xmlns:cc="http://creativecommons.org/ns#"
   xmlns:rdf="http://www.w3.org/1999/02/22-rdf-syntax-ns#"
   xmlns:svg="http://www.w3.org/2000/svg"
   xmlns="http://www.w3.org/2000/svg"
   xmlns:sodipodi="http://sodipodi.sourceforge.net/DTD/sodipodi-0.dtd"
   xmlns:inkscape="http://www.inkscape.org/namespaces/inkscape"
   version="1.1"
   x="0px"
   y="0px"
   viewBox="0 0 100 100"
   xml:space="preserve"
   id="svg4850"
   sodipodi:docname="broadcast-tower.svg"
   inkscape:version="0.92.5 (2060ec1f9f, 2020-04-08)"><metadata
   id="metadata4856"><rdf:RDF><cc:Work
       rdf:about=""><dc:format>image/svg+xml</dc:format><dc:type
         rdf:resource="http://purl.org/dc/dcmitype/StillImage" /></cc:Work></rdf:RDF></metadata><defs
   id="defs4854">
    
    
    
    
    
  </defs><sodipodi:namedview
   pagecolor="#ffffff"
   bordercolor="#666666"
   borderopacity="1"
   objecttolerance="10"
   gridtolerance="10"
   guidetolerance="10"
   inkscape:pageopacity="0"
   inkscape:pageshadow="2"
   inkscape:window-width="1920"
   inkscape:window-height="1016"
   id="namedview4852"
   showgrid="false"
   inkscape:zoom="4.72"
   inkscape:cx="13.297473"
   inkscape:cy="43.466857"
   inkscape:window-x="0"
   inkscape:window-y="27"
   inkscape:window-maximized="1"
   inkscape:current-layer="svg4850" />
  <path
   sodipodi:nodetypes="ssssscccscccsccccscsssssscccccccccccccccccc"
   inkscape:connector-curvature="0"
   id="path4838"
   d="m 60.643765,31 c 0,-2.8 -1.1,-5.5 -3.1,-7.5 -4.1,-4.1 -10.9,-4.1 -15,0 -2,2 -3.1,4.7 -3.1,7.5 0,2.8 1.1,5.5 3.1,7.5 0.4,0.4 0.9,0.8 1.4,1.2 l -14.4,51.4 c -0.7,1.7 -0.1,3.7 1.4,4.7 0.7,0.5 1.5,0.8 2.4,0.8 0.9,0 1.8,-0.3 2.6,-0.9 l 14.1,-11.9 14.2,11.9 c 0.7,0.6 1.7,0.9 2.6,0.9 0.8,0 1.6,-0.3 2.4,-0.8 1.5,-1.1 2,-3 1.3,-4.7 l -14.4,-51.4 c 0.5,-0.4 1,-0.7 1.4,-1.2 2,-2 3.1,-4.7 3.1,-7.5 z m -13.9,-3.3 c 0.9,-0.9 2.1,-1.4 3.3,-1.4 1.2,0 2.4,0.5 3.3,1.4 0.9,0.9 1.4,2 1.4,3.3 0,1.3 -0.5,2.4 -1.4,3.3 -1.8,1.8 -4.7,1.8 -6.5,0 -0.9,-0.9 -1.4,-2 -1.4,-3.3 0,-1.3 0.5,-2.4 1.3,-3.3 z m -10.6,60.2 3.7,-11.1 5.5,3 z m 18.6,-8.1 5.5,-3 3.7,11.1 z m 3.2,-8.7 c -0.2,0.1 -0.4,0.2 -0.5,0.4 l -7.4,4.4 -7.3,-4.5 c -0.2,-0.1 -0.4,-0.3 -0.5,-0.4 l 7.4,-29.4 h 0.4 0.4 z" /><path
   inkscape:connector-curvature="0"
   id="path4840"
   d="m 32.943765,13.9 c -9.4,9.4 -9.4,24.8 0,34.2 l 4.2,-4.2 c -3.4,-3.4 -5.3,-8 -5.3,-12.8 0,-4.8 1.9,-9.4 5.3,-12.8 z"
   style="fill:#57d9cd;fill-opacity:1" /><path
   inkscape:connector-curvature="0"
   id="path4842"
   d="m 67.143765,48.1 c 9.4,-9.4 9.4,-24.8 0,-34.2 l -4.2,4.2 c 3.4,3.4 5.3,8 5.3,12.8 0,4.8 -1.9,9.4 -5.3,12.8 z"
   style="fill:#57d9cd;fill-opacity:1" /><path
   inkscape:connector-curvature="0"
   id="path4844"
   d="m 26.743765,54.3 c -12.9,-12.9 -12.9,-33.8 0,-46.7 l -4.2,-4.2 c -15.2999996,15.2 -15.2999996,40 -0.1,55.2 z"
   style="fill:#57d9cd;fill-opacity:1" /><path
   inkscape:connector-curvature="0"
   id="path4846"
   d="m 73.343765,7.7 c 12.9,12.9 12.9,33.8 0,46.7 l 4.2,4.2 c 15.2,-15.2 15.2,-39.9 0,-55.2 z"
   style="fill:#57d9cd;fill-opacity:1" />
<path
   style="fill:none;stroke:#000000;stroke-width:4;stroke-linecap:butt;stroke-linejoin:miter;stroke-miterlimit:4;stroke-dasharray:none;stroke-opacity:1"
   d="m 41.381809,70.047436 14.988622,-8.077922 v 0"
   id="path43"
   inkscape:connector-curvature="0" /><path
   inkscape:connector-curvature="0"
   id="path850"
   d="M 56.79416,59.877944 41.805538,51.800022 v 0"
   style="fill:none;stroke:#000000;stroke-width:4;stroke-linecap:butt;stroke-linejoin:miter;stroke-miterlimit:4;stroke-dasharray:none;stroke-opacity:1" /></svg>