<?xml version="1.0" encoding="UTF-8" standalone="no"?>
<svg
   xmlns:dc="http://purl.org/dc/elements/1.1/"
   xmlns:cc="http://creativecommons.org/ns#"
   xmlns:rdf="http://www.w3.org/1999/02/22-rdf-syntax-ns#"
   xmlns:svg="http://www.w3.org/2000/svg"
   xmlns="http://www.w3.org/2000/svg"
   xmlns:sodipodi="http://sodipodi.sourceforge.net/DTD/sodipodi-0.dtd"
   xmlns:inkscape="http://www.inkscape.org/namespaces/inkscape"
   version="1.1"
   x="0px"
   y="0px"
   viewBox="0 0 100 100"
   enable-background="new 0 0 100 100"
   xml:space="preserve"
   id="svg3833"
   sodipodi:docname="plink.svg"
   width="100"
   height="100"
   inkscape:version="0.92.5 (2060ec1f9f, 2020-04-08)"><metadata
     id="metadata3839"><rdf:RDF><cc:Work
         rdf:about=""><dc:format>image/svg+xml</dc:format><dc:type
           rdf:resource="http://purl.org/dc/dcmitype/StillImage" /><dc:title></dc:title></cc:Work></rdf:RDF></metadata><defs
     id="defs3837" /><sodipodi:namedview
     pagecolor="#ffffff"
     bordercolor="#666666"
     borderopacity="1"
     objecttolerance="10"
     gridtolerance="10"
     guidetolerance="10"
     inkscape:pageopacity="0"
     inkscape:pageshadow="2"
     inkscape:window-width="1920"
     inkscape:window-height="1016"
     id="namedview3835"
     showgrid="false"
     inkscape:zoom="6.704"
     inkscape:cx="19.953348"
     inkscape:cy="44.192312"
     inkscape:window-x="0"
     inkscape:window-y="27"
     inkscape:window-maximized="1"
     inkscape:current-layer="svg3833"
     showguides="true"
     inkscape:guide-bbox="true"><sodipodi:guide
       position="-7.7565632,58.174224"
       orientation="1,0"
       id="guide3881"
       inkscape:locked="false" /></sodipodi:namedview><g
     aria-label="P"
     style="font-style:normal;font-weight:normal;font-size:40px;line-height:1.25;font-family:sans-serif;letter-spacing:0px;word-spacing:0px;fill:#000000;fill-opacity:1;stroke:none"
     id="text3843"
     transform="matrix(2.9607248,0,0,2.9607248,155.0584,70.839522)"><path
       style="font-style:normal;font-variant:normal;font-weight:normal;font-stretch:normal;font-family:'IBM Plex Sans';-inkscape-font-specification:'IBM Plex Sans';stroke-width:2.96072483"
       d="M -58.183594,0.18359375 V 82.845703 h 9.949219 V 47.554688 h 22.974609 c 0.0674,0 0.132108,-0.0036 0.199219,-0.0039 v -8.765625 c -0.06783,6.16e-4 -0.130843,0.0059 -0.199219,0.0059 H -48.234375 V 8.9472656 h 22.974609 c 3.947632,0 6.987419,1.0253568 9.119141,3.0781254 2.210676,2.052768 3.316406,4.973944 3.316406,8.763671 v 6.158204 c 0,0.08911 -0.0085,0.171613 -0.0098,0.259765 h 10.5117184 c 0.020204,-0.21925 0.044459,-0.435807 0.060547,-0.658203 0.062886,-0.869713 0.095703,-1.761863 0.095703,-2.679687 0,-7.342598 -2.0144299,-13.106526 -6.0410156,-17.291016 C -12.154663,2.3146813 -17.838214,0.18359375 -25.259766,0.18359375 Z"
       transform="matrix(0.33775513,0,0,0.33775513,-26.896774,-21.060441)"
       id="path3845"
       inkscape:connector-curvature="0"
       sodipodi:nodetypes="ccccsccsccscsscccscsc" /></g><g
     id="g4769"
     transform="translate(-4.7503549,12)"><g
       id="g4764"><path
         style="fill:#57d9cd;fill-opacity:1;stroke-width:1.74090457"
         inkscape:connector-curvature="0"
         id="path3825"
         d="m 87.509499,59.331018 c 0,8.939382 -6.790209,16.184764 -15.16802,16.184764 -8.377789,0 -15.167998,-7.245382 -15.167998,-16.184764 0,-8.092381 5.062949,-14.913817 8.854946,-20.983105 3.792,-6.069287 6.313052,-11.386429 6.313052,-11.386429 0,0 2.521053,5.317142 6.313059,11.386429 3.792005,6.069288 8.854961,12.890724 8.854961,20.983105 z"
         sodipodi:nodetypes="sssscss" /><path
         sodipodi:nodetypes="sssscss"
         d="m 83.9339,61.034278 c 0,5.094581 -3.051726,9.223744 -6.81697,9.223744 -3.765232,0 -6.816957,-4.129163 -6.816957,-9.223744 0,-4.611872 2.275443,-8.49943 3.979681,-11.958335 1.704241,-3.458906 2.837276,-6.489162 2.837276,-6.489162 0,0 1.133039,3.030256 2.837281,6.489162 1.704243,3.458905 3.979689,7.346463 3.979689,11.958335 z"
         id="path4760"
         inkscape:connector-curvature="0"
         style="fill:#93e9df;fill-opacity:1;stroke-width:0.88106239" /></g></g></svg>